<?xml version="1.0" encoding="UTF-8" standalone="no"?>
<!-- Created with Inkscape (http://www.inkscape.org/) -->

<svg
   xmlns:dc="http://purl.org/dc/elements/1.1/"
   xmlns:cc="http://creativecommons.org/ns#"
   xmlns:rdf="http://www.w3.org/1999/02/22-rdf-syntax-ns#"
   xmlns:svg="http://www.w3.org/2000/svg"
   xmlns="http://www.w3.org/2000/svg"
   xmlns:sodipodi="http://sodipodi.sourceforge.net/DTD/sodipodi-0.dtd"
   xmlns:inkscape="http://www.inkscape.org/namespaces/inkscape"
   version="1.0"
   width="142.875"
   height="78.71875"
   id="svg2293"
   inkscape:version="0.48.2 r9819"
   sodipodi:docname="ble.svg"
   inkscape:export-filename="/Users/Mongoose/Documents/lockboxx/icons/ble.png"
   inkscape:export-xdpi="90"
   inkscape:export-ydpi="90">
  <metadata
     id="metadata7223">
    <rdf:RDF>
      <cc:Work
         rdf:about="">
        <dc:format>image/svg+xml</dc:format>
        <dc:type
           rdf:resource="http://purl.org/dc/dcmitype/StillImage" />
        <dc:title></dc:title>
      </cc:Work>
    </rdf:RDF>
  </metadata>
  <sodipodi:namedview
     pagecolor="#ffffff"
     bordercolor="#666666"
     borderopacity="1"
     objecttolerance="10"
     gridtolerance="10"
     guidetolerance="10"
     inkscape:pageopacity="0"
     inkscape:pageshadow="2"
     inkscape:window-width="1436"
     inkscape:window-height="856"
     id="namedview7221"
     showgrid="false"
     fit-margin-top="0"
     fit-margin-left="0"
     fit-margin-right="0"
     fit-margin-bottom="0"
     inkscape:zoom="2.4583333"
     inkscape:cx="-42.678914"
     inkscape:cy="40.539591"
     inkscape:window-x="0"
     inkscape:window-y="0"
     inkscape:window-maximized="1"
     inkscape:current-layer="g7800" />
  <defs
     id="defs3" />
  <g
     id="g7770"
     transform="translate(-13.178911,-9.820838)">
    <path
       inkscape:connector-curvature="0"
       id="path2311"
       style="fill:none;stroke:#ffa000;stroke-opacity:1;display:inline"
       d="m 13.927621,32.455788 4.47673,-4.47673 13.18149,12.68408 0,-30.3423 23.12978,22.88108 -15.17115,15.41985 15.66857,15.66857 -23.6272,22.13495 0,-30.09359 -12.68408,12.93278 -5.22285,-4.97414 16.66339,-15.91728 -16.41468,-15.91727 z" />
    <path
       inkscape:connector-curvature="0"
       id="path2313"
       style="fill:#ffa000;fill-opacity:1;fill-rule:evenodd;stroke:#ffa000;stroke-opacity:1;display:inline"
       d="m 38.052231,24.994568 0,15.91727 7.70993,-7.46122 -7.70993,-8.45605 z" />
    <path
       inkscape:connector-curvature="0"
       id="path2315"
       style="fill:#ffa000;fill-opacity:1;fill-rule:evenodd;stroke:#ffa000;stroke-opacity:1;display:inline"
       d="m 37.803521,56.580408 0.49742,14.17632 7.70993,-6.7151 -8.20735,-7.46122 z" />
  </g>
  <g
     id="g7775"
     transform="translate(-11.178911,-3.8208376)">
    <path
       d="m 85.238672,17.672534 0,15.91727 7.70993,-7.46122 -7.70993,-8.45605 z"
       style="fill:#ffa000;fill-opacity:1;fill-rule:evenodd;stroke:#ffa000;stroke-opacity:1;display:inline"
       id="path7756"
       inkscape:connector-curvature="0" />
    <path
       inkscape:connector-curvature="0"
       id="path7760"
       style="fill:#ffa000;fill-opacity:1;fill-rule:evenodd;stroke:#ffa000;stroke-opacity:1;display:inline"
       d="m 85.238672,52.486093 0,15.91727 7.70993,-7.46122 -7.70993,-8.45605 z" />
    <g
       id="g7762">
      <path
         style="fill:none;stroke:#ffa000;stroke-width:1px;stroke-linecap:butt;stroke-linejoin:miter;stroke-opacity:1"
         d="m 62.237288,24.40678 36.40678,36.40678 -17.288135,16.067796 0,-69.1525423 18.101694,18.1016953 -37.220338,35.59322"
         id="path7754"
         inkscape:connector-curvature="0"
         sodipodi:nodetypes="cccccc" />
    </g>
  </g>
  <g
     transform="translate(79.160069,-8.193719)"
     id="g7800">
    <path
       style="fill:#ffa000;fill-opacity:1;stroke:#ffa000;stroke-opacity:1;display:inline"
       d="m 39.589928,10.318719 0,30.34375 -13.1875,-12.6875 -4.46875,4.46875 16.40625,15.9375 -16.65625,15.90625 5.21875,4.96875 12.6875,-12.9375 0,30.09375 23.625,-22.125 -15.65625,-15.65625 15.15625,-15.4375 -23.125,-22.875 z m 6.46875,14.6875 7.71875,8.4375 -7.71875,7.46875 0,-15.90625 z m -0.25,31.5625 8.1875,7.46875 -7.6875,6.71875 -0.5,-14.1875 z"
       id="path7802"
       inkscape:connector-curvature="0" />
  </g>
</svg>
