<?xml version="1.0" encoding="UTF-8" standalone="no"?>
<!-- Created with Inkscape (http://www.inkscape.org/) -->

<svg
   xmlns:dc="http://purl.org/dc/elements/1.1/"
   xmlns:cc="http://creativecommons.org/ns#"
   xmlns:rdf="http://www.w3.org/1999/02/22-rdf-syntax-ns#"
   xmlns:svg="http://www.w3.org/2000/svg"
   xmlns="http://www.w3.org/2000/svg"
   xmlns:sodipodi="http://sodipodi.sourceforge.net/DTD/sodipodi-0.dtd"
   xmlns:inkscape="http://www.inkscape.org/namespaces/inkscape"
   width="92.662422"
   height="101.99891"
   id="svg3015"
   version="1.1"
   inkscape:version="0.48.2 r9819"
   sodipodi:docname="box.svg"
   inkscape:export-filename="/Users/Mongoose/Documents/lockboxx/icons/box.png"
   inkscape:export-xdpi="90"
   inkscape:export-ydpi="90">
  <sodipodi:namedview
     id="base"
     pagecolor="#ffffff"
     bordercolor="#666666"
     borderopacity="1.0"
     inkscape:pageopacity="0.0"
     inkscape:pageshadow="2"
     inkscape:zoom="2.8"
     inkscape:cx="38.250922"
     inkscape:cy="38.701447"
     inkscape:document-units="px"
     inkscape:current-layer="g7111"
     showgrid="false"
     inkscape:window-width="1436"
     inkscape:window-height="856"
     inkscape:window-x="0"
     inkscape:window-y="0"
     inkscape:window-maximized="1"
     fit-margin-top="0"
     fit-margin-left="0"
     fit-margin-right="0"
     fit-margin-bottom="0" />
  <defs
     id="defs3017">
    <marker
       style="overflow:visible"
       id="Arrow1Send"
       refX="0"
       refY="0"
       orient="auto"
       inkscape:stockid="Arrow1Send">
      <path
         transform="matrix(-0.2,0,0,-0.2,-1.2,0)"
         style="fill-rule:evenodd;stroke:#000000;stroke-width:1pt;marker-start:none"
         d="M 0,0 5,-5 -12.5,0 5,5 0,0 z"
         id="path3884"
         inkscape:connector-curvature="0" />
    </marker>
    <marker
       style="overflow:visible"
       id="Arrow1Sstart"
       refX="0"
       refY="0"
       orient="auto"
       inkscape:stockid="Arrow1Sstart">
      <path
         transform="matrix(0.2,0,0,0.2,1.2,0)"
         style="fill-rule:evenodd;stroke:#000000;stroke-width:1pt;marker-start:none"
         d="M 0,0 5,-5 -12.5,0 5,5 0,0 z"
         id="path3881"
         inkscape:connector-curvature="0" />
    </marker>
    <marker
       style="overflow:visible"
       id="Arrow1Mstart"
       refX="0"
       refY="0"
       orient="auto"
       inkscape:stockid="Arrow1Mstart">
      <path
         transform="matrix(0.4,0,0,0.4,4,0)"
         style="fill-rule:evenodd;stroke:#000000;stroke-width:1pt;marker-start:none"
         d="M 0,0 5,-5 -12.5,0 5,5 0,0 z"
         id="path3875"
         inkscape:connector-curvature="0" />
    </marker>
    <marker
       inkscape:stockid="DotS"
       orient="auto"
       refY="0"
       refX="0"
       id="DotS"
       style="overflow:visible">
      <path
         id="path3937"
         d="m -2.5,-1 c 0,2.76 -2.24,5 -5,5 -2.76,0 -5,-2.24 -5,-5 0,-2.76 2.24,-5 5,-5 2.76,0 5,2.24 5,5 z"
         style="fill-rule:evenodd;stroke:#000000;stroke-width:1pt;marker-start:none;marker-end:none"
         transform="matrix(0.2,0,0,0.2,1.48,0.2)"
         inkscape:connector-curvature="0" />
    </marker>
    <marker
       inkscape:stockid="TriangleOutM"
       orient="auto"
       refY="0"
       refX="0"
       id="TriangleOutM"
       style="overflow:visible">
      <path
         id="path4015"
         d="m 5.77,0 -8.65,5 0,-10 8.65,5 z"
         style="fill-rule:evenodd;stroke:#000000;stroke-width:1pt;marker-start:none"
         transform="scale(0.4,0.4)"
         inkscape:connector-curvature="0" />
    </marker>
    <marker
       inkscape:stockid="Arrow1Mend"
       orient="auto"
       refY="0"
       refX="0"
       id="Arrow1Mend"
       style="overflow:visible">
      <path
         id="path3878"
         d="M 0,0 5,-5 -12.5,0 5,5 0,0 z"
         style="fill-rule:evenodd;stroke:#000000;stroke-width:1pt;marker-start:none"
         transform="matrix(-0.4,0,0,-0.4,-4,0)"
         inkscape:connector-curvature="0" />
    </marker>
    <marker
       inkscape:stockid="Arrow1Lend"
       orient="auto"
       refY="0"
       refX="0"
       id="Arrow1Lend"
       style="overflow:visible">
      <path
         id="path3872"
         d="M 0,0 5,-5 -12.5,0 5,5 0,0 z"
         style="fill-rule:evenodd;stroke:#000000;stroke-width:1pt;marker-start:none"
         transform="matrix(-0.8,0,0,-0.8,-10,0)"
         inkscape:connector-curvature="0" />
    </marker>
    <inkscape:perspective
       id="perspective3039"
       inkscape:persp3d-origin="372.04724 : 350.78739 : 1"
       inkscape:vp_z="781.23734 : 594.75252 : 1"
       inkscape:vp_y="0 : 1000 : 0"
       inkscape:vp_x="0 : 526.18109 : 1"
       sodipodi:type="inkscape:persp3d" />
    <marker
       inkscape:stockid="DotSK"
       orient="auto"
       refY="0"
       refX="0"
       id="DotSK"
       style="overflow:visible">
      <path
         id="path5069"
         d="m -2.5,-1 c 0,2.76 -2.24,5 -5,5 -2.76,0 -5,-2.24 -5,-5 0,-2.76 2.24,-5 5,-5 2.76,0 5,2.24 5,5 z"
         style="fill:#efb11d;fill-rule:evenodd;stroke:#efb11d;stroke-width:1pt;marker-start:none;marker-end:none"
         transform="matrix(0.2,0,0,0.2,1.48,0.2)"
         inkscape:connector-curvature="0" />
    </marker>
    <marker
       style="overflow:visible"
       id="Arrow1SstartZ"
       refX="0"
       refY="0"
       orient="auto"
       inkscape:stockid="Arrow1SstartZ">
      <path
         transform="matrix(0.2,0,0,0.2,1.2,0)"
         style="fill:#efb11d;fill-rule:evenodd;stroke:#efb11d;stroke-width:1pt;marker-start:none"
         d="M 0,0 5,-5 -12.5,0 5,5 0,0 z"
         id="path5898"
         inkscape:connector-curvature="0" />
    </marker>
    <marker
       style="overflow:visible"
       id="Arrow1SendX"
       refX="0"
       refY="0"
       orient="auto"
       inkscape:stockid="Arrow1SendX">
      <path
         transform="matrix(-0.2,0,0,-0.2,-1.2,0)"
         style="fill:#efb11d;fill-rule:evenodd;stroke:#efb11d;stroke-width:1pt;marker-start:none"
         d="M 0,0 5,-5 -12.5,0 5,5 0,0 z"
         id="path5901"
         inkscape:connector-curvature="0" />
    </marker>
    <marker
       style="overflow:visible"
       id="Arrow1Sstarte"
       refX="0"
       refY="0"
       orient="auto"
       inkscape:stockid="Arrow1Sstarte">
      <path
         transform="matrix(0.2,0,0,0.2,1.2,0)"
         style="fill:#efb11d;fill-rule:evenodd;stroke:#efb11d;stroke-width:1pt;marker-start:none"
         d="M 0,0 5,-5 -12.5,0 5,5 0,0 z"
         id="path6368"
         inkscape:connector-curvature="0" />
    </marker>
    <marker
       style="overflow:visible"
       id="Arrow1Send4"
       refX="0"
       refY="0"
       orient="auto"
       inkscape:stockid="Arrow1Send4">
      <path
         transform="matrix(-0.2,0,0,-0.2,-1.2,0)"
         style="fill:#efb11d;fill-rule:evenodd;stroke:#efb11d;stroke-width:1pt;marker-start:none"
         d="M 0,0 5,-5 -12.5,0 5,5 0,0 z"
         id="path6371"
         inkscape:connector-curvature="0" />
    </marker>
    <marker
       style="overflow:visible"
       id="Arrow1Sstart3"
       refX="0"
       refY="0"
       orient="auto"
       inkscape:stockid="Arrow1Sstart3">
      <path
         transform="matrix(0.2,0,0,0.2,1.2,0)"
         style="fill:#efb11d;fill-rule:evenodd;stroke:#efb11d;stroke-width:1pt;marker-start:none"
         d="M 0,0 5,-5 -12.5,0 5,5 0,0 z"
         id="path7058"
         inkscape:connector-curvature="0" />
    </marker>
    <marker
       style="overflow:visible"
       id="Arrow1Sendl"
       refX="0"
       refY="0"
       orient="auto"
       inkscape:stockid="Arrow1Sendl">
      <path
         transform="matrix(-0.2,0,0,-0.2,-1.2,0)"
         style="fill:#efb11d;fill-rule:evenodd;stroke:#efb11d;stroke-width:1pt;marker-start:none"
         d="M 0,0 5,-5 -12.5,0 5,5 0,0 z"
         id="path7061"
         inkscape:connector-curvature="0" />
    </marker>
    <marker
       style="overflow:visible"
       id="Arrow1Sstart3D"
       refX="0"
       refY="0"
       orient="auto"
       inkscape:stockid="Arrow1Sstart3D">
      <path
         transform="matrix(0.2,0,0,0.2,1.2,0)"
         style="stroke-width:1pt;marker-start:none;stroke:#6a83f7;fill-rule:evenodd;fill:#6a83f7"
         d="M 0,0 5,-5 -12.5,0 5,5 0,0 z"
         id="path4151"
         inkscape:connector-curvature="0" />
    </marker>
    <marker
       style="overflow:visible"
       id="Arrow1Sendle"
       refX="0"
       refY="0"
       orient="auto"
       inkscape:stockid="Arrow1Sendle">
      <path
         transform="matrix(-0.2,0,0,-0.2,-1.2,0)"
         style="stroke-width:1pt;marker-start:none;stroke:#6a83f7;fill-rule:evenodd;fill:#6a83f7"
         d="M 0,0 5,-5 -12.5,0 5,5 0,0 z"
         id="path4154"
         inkscape:connector-curvature="0" />
    </marker>
    <marker
       style="overflow:visible"
       id="Arrow1SstarteO"
       refX="0"
       refY="0"
       orient="auto"
       inkscape:stockid="Arrow1SstarteO">
      <path
         transform="matrix(0.2,0,0,0.2,1.2,0)"
         style="stroke-width:1pt;marker-start:none;stroke:#6a83f7;fill-rule:evenodd;fill:#6a83f7"
         d="M 0,0 5,-5 -12.5,0 5,5 0,0 z"
         id="path4247"
         inkscape:connector-curvature="0" />
    </marker>
    <marker
       style="overflow:visible"
       id="Arrow1Send44"
       refX="0"
       refY="0"
       orient="auto"
       inkscape:stockid="Arrow1Send44">
      <path
         transform="matrix(-0.2,0,0,-0.2,-1.2,0)"
         style="stroke-width:1pt;marker-start:none;stroke:#6a83f7;fill-rule:evenodd;fill:#6a83f7"
         d="M 0,0 5,-5 -12.5,0 5,5 0,0 z"
         id="path4250"
         inkscape:connector-curvature="0" />
    </marker>
    <marker
       style="overflow:visible"
       id="Arrow1SstartZk"
       refX="0"
       refY="0"
       orient="auto"
       inkscape:stockid="Arrow1SstartZk">
      <path
         transform="matrix(0.2,0,0,0.2,1.2,0)"
         style="stroke-width:1pt;marker-start:none;stroke:#6a83f7;fill-rule:evenodd;fill:#6a83f7"
         d="M 0,0 5,-5 -12.5,0 5,5 0,0 z"
         id="path4351"
         inkscape:connector-curvature="0" />
    </marker>
    <marker
       style="overflow:visible"
       id="Arrow1SendXs"
       refX="0"
       refY="0"
       orient="auto"
       inkscape:stockid="Arrow1SendXs">
      <path
         transform="matrix(-0.2,0,0,-0.2,-1.2,0)"
         style="stroke-width:1pt;marker-start:none;stroke:#6a83f7;fill-rule:evenodd;fill:#6a83f7"
         d="M 0,0 5,-5 -12.5,0 5,5 0,0 z"
         id="path4354"
         inkscape:connector-curvature="0" />
    </marker>
  </defs>
  <metadata
     id="metadata3020">
    <rdf:RDF>
      <cc:Work
         rdf:about="">
        <dc:format>image/svg+xml</dc:format>
        <dc:type
           rdf:resource="http://purl.org/dc/dcmitype/StillImage" />
        <dc:title></dc:title>
      </cc:Work>
    </rdf:RDF>
  </metadata>
  <g
     id="layer1"
     inkscape:groupmode="layer"
     inkscape:label="Layer 1"
     transform="translate(-279.15677,-601.24838)">
    <g
       style="fill:none;stroke:#efb11d;stroke-width:4;stroke-linejoin:miter;stroke-miterlimit:4;stroke-opacity:1;stroke-dasharray:none"
       id="g3041">
      <g
         id="g7111"
         transform="matrix(0.60617265,0,0,0.60617265,110.31159,237.29517)"
         style="stroke-dasharray:none;stroke:#6a83f7;stroke-width:4.00051042000000034;stroke-miterlimit:4;stroke-opacity:1">
        <path
           d="m 290,633.16725 44.28571,16.33779 81.98169,-35.19823 -46.15284,-9.77077 z"
           style="fill:none;stroke:#6a83f7;stroke-width:8.24847508;stroke-linecap:round;stroke-linejoin:round;stroke-miterlimit:4;stroke-opacity:1;stroke-dasharray:none"
           id="path3063"
           inkscape:connector-curvature="0" />
        <path
           d="m 334.28571,649.50504 0,104.46256 81.98169,-54.35918 0,-85.30161 z"
           style="fill:none;stroke:#6a83f7;stroke-width:8.24847508;stroke-linejoin:round;stroke-miterlimit:4;stroke-opacity:1;stroke-dasharray:none"
           id="path3065"
           inkscape:connector-curvature="0"
           sodipodi:nodetypes="ccccc" />
        <path
           d="m 290,633.16725 44.28571,16.33779 0,104.46256 L 290,723.79076 z"
           style="fill:none;stroke:#6a83f7;stroke-width:8.24847508;stroke-linecap:round;stroke-linejoin:round;stroke-miterlimit:4;stroke-opacity:1;stroke-dasharray:none"
           id="path3067"
           inkscape:connector-curvature="0"
           sodipodi:nodetypes="ccccc" />
        <path
           sodipodi:nodetypes="cc"
           inkscape:connector-curvature="0"
           id="path3844"
           style="stroke-linejoin:round;marker-end:url(#Arrow1SendXs);stroke-opacity:1;marker-start:url(#Arrow1SstartZk);stroke:#6a83f7;stroke-linecap:round;stroke-miterlimit:4;stroke-dasharray:none;stroke-width:4.00051042000000034;fill:none"
           d="m 282.5,735.57647 44.28571,30.17684" />
        <path
           sodipodi:nodetypes="cc"
           inkscape:connector-curvature="0"
           id="path5941"
           style="stroke-linejoin:round;marker-end:url(#Arrow1Send44);stroke-opacity:1;marker-start:url(#Arrow1SstarteO);stroke:#6a83f7;stroke-miterlimit:4;stroke-dasharray:none;stroke-width:4.00051042000000034;fill:none"
           d="m 343.35714,765.89617 81.98169,-54.35918" />
        <path
           sodipodi:nodetypes="cc"
           inkscape:connector-curvature="0"
           id="path6415"
           style="stroke-linejoin:round;marker-end:url(#Arrow1Sendle);stroke-opacity:1;marker-start:url(#Arrow1Sstart3D);stroke:#6a83f7;stroke-miterlimit:4;stroke-dasharray:none;stroke-width:4.00051042000000034;fill:none"
           d="m 427.69597,693.17985 0,-85.30161" />
      </g>
    </g>
  </g>
</svg>
