<?xml version="1.0" encoding="UTF-8" standalone="no"?>
<!-- Created with Inkscape (http://www.inkscape.org/) -->

<svg
   xmlns:dc="http://purl.org/dc/elements/1.1/"
   xmlns:cc="http://creativecommons.org/ns#"
   xmlns:rdf="http://www.w3.org/1999/02/22-rdf-syntax-ns#"
   xmlns:svg="http://www.w3.org/2000/svg"
   xmlns="http://www.w3.org/2000/svg"
   xmlns:sodipodi="http://sodipodi.sourceforge.net/DTD/sodipodi-0.dtd"
   xmlns:inkscape="http://www.inkscape.org/namespaces/inkscape"
   width="138.53656"
   height="100.19877"
   id="svg8914"
   version="1.1"
   inkscape:version="0.48.2 r9819"
   sodipodi:docname="cloud.svg"
   inkscape:export-filename="/Users/Mongoose/Documents/lockboxx/icons/cloud.png"
   inkscape:export-xdpi="90"
   inkscape:export-ydpi="90">
  <defs
     id="defs8916">
    <inkscape:path-effect
       effect="bend_path"
       id="path-effect9434"
       is_visible="true"
       bendpath="m 113.68893,619.43057 24.88064,0"
       prop_scale="1"
       scale_y_rel="false"
       vertical="false" />
  </defs>
  <sodipodi:namedview
     id="base"
     pagecolor="#ffffff"
     bordercolor="#666666"
     borderopacity="1.0"
     inkscape:pageopacity="0.0"
     inkscape:pageshadow="2"
     inkscape:zoom="2.8"
     inkscape:cx="4.9427563"
     inkscape:cy="18.375866"
     inkscape:document-units="px"
     inkscape:current-layer="g9471"
     showgrid="false"
     fit-margin-top="0"
     fit-margin-left="0"
     fit-margin-right="0"
     fit-margin-bottom="0"
     inkscape:window-width="1436"
     inkscape:window-height="856"
     inkscape:window-x="0"
     inkscape:window-y="0"
     inkscape:window-maximized="1">
    <inkscape:grid
       type="xygrid"
       id="grid9438"
       empspacing="5"
       visible="true"
       enabled="true"
       snapvisiblegridlinesonly="true" />
  </sodipodi:namedview>
  <metadata
     id="metadata8919">
    <rdf:RDF>
      <cc:Work
         rdf:about="">
        <dc:format>image/svg+xml</dc:format>
        <dc:type
           rdf:resource="http://purl.org/dc/dcmitype/StillImage" />
        <dc:title />
      </cc:Work>
    </rdf:RDF>
  </metadata>
  <g
     inkscape:label="Layer 1"
     inkscape:groupmode="layer"
     id="layer1"
     transform="translate(-48.986107,-335.61502)">
    <g
       id="g9465"
       transform="matrix(0.36478868,0,0,0.36478868,30.856827,212.92688)"
       style="stroke-width:13.70656586;stroke-miterlimit:4;stroke-dasharray:none">
      <g
         id="g9471"
         transform="matrix(0.90049472,0,0,0.90049472,9.8831459,38.404256)">
        <path
           style="fill:none;stroke:#6a83f7;stroke-width:13.70656585999999955;stroke-linecap:butt;stroke-linejoin:miter;stroke-miterlimit:4;stroke-opacity:1;stroke-dasharray:none"
           d="m 122.85714,538.07647 241.47063,0 c 171.9325,0 75.98776,-199.71934 -21.47063,-137.14286 11.48106,-61.14685 -87.63185,-88.14013 -140,-34.28571 -43.02922,-52.48668 -140.147247,-7.87426 -100,45.71428 -76.266666,9.88017 -67.188097,125.71429 20,125.71429 z"
           id="path8922"
           inkscape:connector-curvature="0"
           sodipodi:nodetypes="sscccs" />
        <path
           style="fill:none;stroke:#6a83f7;stroke-width:13.70656585999999955;stroke-linecap:butt;stroke-linejoin:miter;stroke-miterlimit:4;stroke-opacity:1;stroke-dasharray:none"
           d="m 160.61354,581.12787 c 0,0 -17.66659,13.32008 -24.59438,21.8091 -2.62891,3.22136 -5.46704,6.71657 -6.23688,10.80261 -0.82159,4.36056 -0.49811,9.49576 2.00433,13.16009 0.78162,1.14454 2.21885,1.97432 3.60086,2.07896 4.42461,0.33501 9.03358,-1.95245 12.39914,-4.84424 3.15368,-2.70973 4.76157,-6.91522 6.23689,-10.80261 3.88781,-10.24415 6.59004,-32.20391 6.59004,-32.20391 z"
           id="path9440"
           inkscape:connector-curvature="0"
           sodipodi:nodetypes="cssssssc" />
        <path
           sodipodi:nodetypes="cssssssc"
           inkscape:connector-curvature="0"
           id="path9442"
           d="m 260.11345,581.12787 c 0,0 -17.66659,13.32008 -24.59438,21.8091 -2.62891,3.22136 -5.46704,6.71657 -6.23688,10.80261 -0.82159,4.36056 -0.49811,9.49576 2.00433,13.16009 0.78162,1.14454 2.21885,1.97432 3.60086,2.07896 4.42461,0.33501 9.03358,-1.95245 12.39914,-4.84424 3.15368,-2.70973 4.76157,-6.91522 6.23689,-10.80261 3.88781,-10.24415 6.59004,-32.20391 6.59004,-32.20391 z"
           style="fill:none;stroke:#6a83f7;stroke-width:13.70656585999999955;stroke-linecap:butt;stroke-linejoin:miter;stroke-miterlimit:4;stroke-opacity:1;stroke-dasharray:none" />
        <path
           style="fill:none;stroke:#6a83f7;stroke-width:13.70656585999999955;stroke-linecap:butt;stroke-linejoin:miter;stroke-miterlimit:4;stroke-opacity:1;stroke-dasharray:none"
           d="m 354.13072,581.12787 c 0,0 -17.66659,13.32008 -24.59438,21.8091 -2.62891,3.22136 -5.46704,6.71657 -6.23688,10.80261 -0.82159,4.36056 -0.49811,9.49576 2.00433,13.16009 0.78162,1.14454 2.21885,1.97432 3.60086,2.07896 4.42461,0.33501 9.03358,-1.95245 12.39914,-4.84424 3.15368,-2.70973 4.76157,-6.91522 6.23689,-10.80261 3.88781,-10.24415 6.59004,-32.20391 6.59004,-32.20391 z"
           id="path9444"
           inkscape:connector-curvature="0"
           sodipodi:nodetypes="cssssssc" />
      </g>
    </g>
  </g>
</svg>
