<?xml version="1.0" encoding="UTF-8" standalone="no"?>
<svg
   xmlns:dc="http://purl.org/dc/elements/1.1/"
   xmlns:cc="http://creativecommons.org/ns#"
   xmlns:rdf="http://www.w3.org/1999/02/22-rdf-syntax-ns#"
   xmlns:svg="http://www.w3.org/2000/svg"
   xmlns="http://www.w3.org/2000/svg"
   xmlns:sodipodi="http://sodipodi.sourceforge.net/DTD/sodipodi-0.dtd"
   xmlns:inkscape="http://www.inkscape.org/namespaces/inkscape"
   width="74.309074"
   height="100.19389"
   viewBox="0 0 59.447244 80.1551"
   id="svg3032"
   version="1.1"
   inkscape:version="0.48.2 r9819"
   sodipodi:docname="padlock.svg"
   inkscape:export-filename="/Users/Mongoose/Development/lockboxx/public/img/icons/padlock.png"
   inkscape:export-xdpi="90"
   inkscape:export-ydpi="90">
  <metadata
     id="metadata3039">
    <rdf:RDF>
      <cc:Work
         rdf:about="">
        <dc:format>image/svg+xml</dc:format>
        <dc:type
           rdf:resource="http://purl.org/dc/dcmitype/StillImage" />
        <dc:title></dc:title>
      </cc:Work>
    </rdf:RDF>
  </metadata>
  <defs
     id="defs3037" />
  <sodipodi:namedview
     pagecolor="#ffffff"
     bordercolor="#666666"
     borderopacity="1"
     objecttolerance="10"
     gridtolerance="10"
     guidetolerance="10"
     inkscape:pageopacity="0"
     inkscape:pageshadow="2"
     inkscape:window-width="1440"
     inkscape:window-height="856"
     id="namedview3035"
     showgrid="false"
     inkscape:zoom="4"
     inkscape:cx="1.2628627"
     inkscape:cy="27.306087"
     inkscape:window-x="0"
     inkscape:window-y="0"
     inkscape:window-maximized="0"
     inkscape:current-layer="g5154"
     fit-margin-top="0"
     fit-margin-left="0"
     fit-margin-right="0"
     fit-margin-bottom="0"
     showguides="true"
     inkscape:guide-bbox="true" />
  <g
     id="g5154"
     transform="translate(1.9999998,3.3070197)">
    <g
       id="g4371"
       transform="matrix(0.95195946,0,0,0.95195946,-0.09608163,-0.15887101)">
      <path
         sodipodi:nodetypes="cccccssccc"
         inkscape:connector-curvature="0"
         id="path4363"
         d="m -1.1731744e-5,34.226852 0,44.666249 58.447253731744,0 0,-44.666249 -6.754095,0 C 51.456145,25.734289 52.832456,17.838978 48.502725,10.000672 44.270641,2.3391057 36.507936,-1.4380625 28.764771,-1.3035507 21.932566,-1.1848637 15.117167,1.9779618 10.733115,8.2232782 5.1238324,16.203604 6.6947371,25.367335 6.4865673,34.226852 c -2.8369378,0.100543 -6.486579031744,-2e-6 -6.486579031744,0 z"
         style="fill:none;stroke:#6a83f7;stroke-width:3.99999952;stroke-miterlimit:4;stroke-opacity:1;stroke-dasharray:none" />
      <path
         sodipodi:nodetypes="ccccc"
         inkscape:connector-curvature="0"
         id="path4361"
         d="m 40.799984,19.286947 0,14.939905 -22.851198,0 c -0.01061,-6.403013 0,-10.373321 0,-15.597464 C 17.845148,7.3356179 40.811213,6.7716605 40.799984,19.286947 z"
         style="fill:none;stroke:#6a83f7;stroke-width:3.99999952;stroke-miterlimit:4;stroke-opacity:1;stroke-dasharray:none" />
      <path
         inkscape:connector-curvature="0"
         id="Selection"
         d="m 29.223616,45.15598 c 3.387451,0 6.133517,2.949481 6.133517,6.587852 0,2.312358 -1.104705,4.347478 -2.7828,5.523005 -0.569526,0.571334 -1.048726,1.060525 -1.079044,3.336519 l 0,5.906349 -4.543347,0 0,-5.906349 c -0.02299,-2.112379 -0.651919,-2.703046 -1.221024,-3.450103 -1.591113,-1.190166 -2.64082,-3.168979 -2.64082,-5.409421 0,-3.638371 2.746073,-6.587852 6.133518,-6.587852 z"
         style="fill:none;stroke:#6a83f7;stroke-width:2.39999962;stroke-miterlimit:4;stroke-opacity:1;stroke-dasharray:none" />
    </g>
    <g
       transform="translate(-206.94372,-26.734342)"
       id="g5208"
       mask="none">
      <g
         id="g5210" />
    </g>
  </g>
  <g
     inkscape:groupmode="layer"
     id="layer4"
     inkscape:label="Layer"
     style="display:inline"
     transform="translate(1.9999993,-23.892977)" />
</svg>
